<?xml version="1.0" standalone="no"?>
<!DOCTYPE svg PUBLIC "-//W3C//DTD SVG 20010904//EN"
 "http://www.w3.org/TR/2001/REC-SVG-20010904/DTD/svg10.dtd">
<svg version="1.0" xmlns="http://www.w3.org/2000/svg"
 width="908.000000pt" height="1280.000000pt" viewBox="0 0 908.000000 1280.000000"
 preserveAspectRatio="xMidYMid meet">
<metadata>
Created by potrace 1.15, written by Peter Selinger 2001-2017
</metadata>
<g transform="translate(0.000000,1280.000000) scale(0.100000,-0.100000)"
fill="#000000" stroke="none">
<path d="M5487 12785 c-20 -19 -26 -4 57 -139 56 -92 112 -263 93 -282 -4 -4
-45 10 -92 31 -112 50 -168 51 -255 4 -83 -44 -110 -78 -110 -136 0 -34 8 -58
30 -94 31 -47 149 -166 268 -268 34 -30 62 -57 62 -61 0 -4 -26 -18 -57 -31
-177 -69 -335 -166 -505 -309 -86 -71 -178 -170 -178 -190 0 -28 141 -70 370
-110 96 -17 185 -38 198 -46 61 -40 64 -104 22 -509 -32 -314 -36 -420 -18
-460 13 -29 45 -40 86 -30 35 8 122 100 163 173 76 134 118 174 156 147 31
-23 30 -177 -1 -359 -48 -279 -55 -557 -20 -881 19 -178 37 -256 85 -377 50
-124 67 -234 51 -330 -20 -118 -49 -164 -160 -256 -71 -59 -122 -130 -203
-285 -209 -394 -280 -431 -888 -453 -255 -10 -271 -2 -236 112 51 167 145 749
145 900 0 104 -15 161 -72 284 -86 183 -214 516 -388 1005 -182 513 -249 659
-326 710 -14 9 -100 38 -192 65 -92 27 -246 76 -342 109 -286 96 -585 154
-995 191 -271 25 -351 22 -423 -14 -126 -64 -206 -200 -475 -816 -243 -556
-239 -547 -227 -570 28 -52 160 -27 160 30 0 42 69 150 231 360 119 155 211
289 274 400 123 216 256 370 370 426 102 49 215 32 215 -34 0 -35 -35 -69
-116 -111 -137 -72 -424 -364 -424 -432 0 -20 -33 -55 -70 -74 -56 -29 -106
-141 -176 -395 -53 -190 -82 -258 -135 -311 -43 -43 -101 -74 -400 -212 -527
-244 -680 -339 -769 -477 -106 -166 -243 -773 -266 -1185 -15 -247 29 -247 99
0 30 104 57 212 127 523 100 438 186 631 349 785 116 109 234 165 531 250 248
71 280 70 280 -9 0 -52 25 -102 53 -109 35 -9 90 17 120 56 14 19 38 74 54
123 l29 89 46 -99 c76 -161 76 -193 2 -225 -46 -21 -115 -28 -429 -48 -82 -6
-167 -15 -188 -22 -61 -20 -112 -73 -208 -215 -50 -74 -120 -166 -155 -204
-52 -57 -67 -81 -83 -137 -39 -128 -67 -364 -92 -758 -20 -319 -3 -447 77
-582 53 -88 124 -163 156 -163 58 0 73 64 82 350 9 292 56 861 92 1110 34 233
83 273 444 354 283 64 433 57 475 -24 47 -92 -9 -137 -232 -189 -148 -34 -216
-64 -261 -115 -61 -70 -79 -121 -133 -388 -23 -116 -61 -265 -90 -352 -50
-151 -229 -856 -229 -902 0 -33 26 -41 57 -18 88 66 341 639 360 815 5 50 3
58 -20 81 -38 38 -51 98 -38 174 24 136 138 409 204 489 22 27 36 35 62 35 75
0 291 -88 365 -149 l35 -29 -19 -39 c-10 -21 -62 -99 -115 -173 -186 -258
-183 -247 -189 -625 -6 -436 21 -773 84 -1025 42 -169 100 -270 155 -270 26 0
65 -72 114 -209 23 -64 63 -159 90 -211 134 -267 344 -559 441 -616 54 -32
121 -38 136 -13 17 26 -35 115 -139 240 -121 145 -183 236 -249 368 -129 261
-185 556 -139 736 32 124 193 412 273 488 17 16 38 27 48 25 22 -4 84 -96 193
-281 106 -183 176 -279 290 -399 205 -216 434 -357 691 -425 72 -19 129 -27
238 -30 92 -4 142 -2 142 5 0 12 -7 14 -175 56 -152 39 -253 78 -384 147 -382
204 -656 489 -531 554 42 22 60 63 71 168 6 51 13 107 15 126 7 43 54 91 89
91 44 0 84 28 120 85 47 73 71 80 219 64 102 -11 123 -11 196 5 167 36 350
134 589 314 136 103 241 162 358 201 72 24 479 91 571 94 56 2 66 -1 83 -22
10 -13 19 -38 19 -57 0 -39 29 -74 60 -74 35 0 101 40 150 91 37 39 83 119
215 377 181 355 218 417 273 462 74 61 131 49 172 -37 l23 -48 11 43 c13 51
29 63 68 50 36 -13 58 -4 58 21 0 47 -66 266 -154 513 -139 390 -177 536 -195
766 -19 231 11 419 98 616 26 61 53 126 60 145 14 43 14 134 0 186 -23 83
-152 411 -169 428 -16 17 -20 18 -47 4 -16 -9 -87 -80 -158 -159 -136 -151
-182 -197 -202 -198 -17 0 -27 62 -19 121 10 75 59 205 116 304 85 151 93 171
78 203 -17 36 -106 71 -397 157 -217 63 -239 71 -230 78 2 2 63 53 135 113 72
61 160 125 195 144 71 38 117 42 286 25 64 -6 86 -5 99 6 28 23 11 96 -60 247
-78 168 -94 219 -73 239 13 13 21 13 53 3 30 -10 198 -118 325 -209 18 -13 19
-10 19 87 0 119 -19 225 -55 313 -52 124 -51 146 1 133 36 -9 216 -187 267
-265 87 -134 131 -250 177 -470 33 -161 71 -217 154 -234 46 -10 88 -62 114
-143 13 -40 31 -76 40 -81 26 -14 65 7 180 92 208 155 273 134 136 -45 -132
-171 -238 -479 -190 -552 31 -48 106 -56 304 -30 239 31 250 4 79 -186 -51
-56 -107 -120 -124 -143 -48 -62 -45 -106 16 -248 80 -187 111 -327 113 -503
1 -147 -33 -205 -81 -138 -57 81 -198 408 -281 655 -35 102 -68 151 -98 145
-28 -5 -27 -71 3 -167 15 -47 65 -176 112 -286 146 -340 221 -567 277 -832 76
-360 78 -710 5 -958 -57 -192 -131 -272 -358 -390 -173 -89 -243 -142 -225
-171 23 -39 152 -46 238 -13 264 98 576 540 636 897 17 103 7 165 -45 269 -50
103 -63 156 -44 179 11 13 26 15 79 10 59 -6 71 -3 128 24 80 38 165 103 232
177 62 70 88 118 97 179 11 80 39 88 102 30 51 -47 100 -117 212 -302 56 -93
167 -265 246 -382 203 -300 304 -523 361 -792 35 -162 36 -222 8 -525 -14
-154 -37 -432 -51 -619 -26 -349 -49 -556 -64 -585 -17 -31 -186 -187 -314
-289 -162 -129 -314 -232 -343 -232 -16 0 12 97 70 245 74 187 90 234 110 335
56 279 6 529 -122 603 -75 44 -152 8 -152 -71 0 -53 -34 -188 -74 -290 -67
-174 -153 -329 -267 -478 -87 -115 -109 -152 -109 -187 0 -55 80 -82 146 -51
57 27 154 129 275 289 108 143 182 220 199 210 49 -30 -81 -375 -335 -890
-143 -290 -200 -390 -299 -528 -170 -239 -360 -412 -871 -799 -228 -173 -308
-253 -376 -378 -28 -52 -93 -158 -145 -235 -141 -212 -242 -440 -306 -689 -40
-156 -41 -281 -4 -599 15 -125 26 -249 24 -275 l-3 -47 -21 40 c-29 53 -86
237 -188 603 l-85 303 80 177 c165 363 247 569 300 752 57 195 104 264 337
497 184 184 289 312 341 417 41 82 48 114 27 122 -30 11 -92 -26 -237 -141
-143 -114 -257 -189 -303 -201 -21 -5 -29 0 -45 27 -24 40 -46 140 -61 282
-21 194 -48 268 -85 237 -25 -21 -34 -43 -50 -127 -21 -108 -47 -185 -122
-353 -65 -144 -101 -238 -122 -315 -15 -56 -76 -154 -203 -327 -383 -521 -708
-1155 -708 -1380 0 -109 -28 -121 -145 -64 -82 39 -118 75 -140 135 -34 96
-13 210 97 531 106 311 150 516 257 1200 51 321 57 381 42 408 -29 54 -99 -1
-130 -101 -10 -34 -24 -98 -31 -142 -33 -213 -84 -303 -163 -288 -15 3 -66 40
-115 84 -48 44 -110 90 -138 104 -67 32 -112 83 -232 262 -55 82 -147 208
-205 280 -166 207 -164 239 14 295 57 18 95 22 169 22 152 -2 235 -44 328
-165 29 -38 72 -80 95 -93 115 -66 507 -61 797 10 260 64 452 178 694 414 241
234 380 435 504 730 76 181 76 200 1 200 -53 0 -113 -56 -181 -168 -82 -136
-198 -274 -397 -473 -278 -277 -453 -410 -611 -464 -170 -59 -430 -105 -589
-105 -114 0 -140 7 -162 45 -24 39 -103 83 -214 118 -123 39 -218 56 -403 72
-201 18 -299 43 -459 120 -241 115 -436 272 -584 470 -72 95 -195 218 -246
244 -64 32 -133 24 -133 -17 0 -48 177 -390 287 -556 73 -109 180 -228 258
-286 28 -20 88 -59 135 -85 172 -98 264 -186 354 -338 109 -184 319 -421 751
-844 l303 -298 -44 -145 c-191 -626 -241 -849 -232 -1029 7 -120 30 -183 104
-282 80 -106 113 -176 124 -262 12 -97 32 -194 86 -417 45 -187 74 -333 74
-376 0 -40 -44 -30 -220 50 -158 72 -248 84 -258 33 -7 -36 41 -71 187 -135
257 -114 414 -320 346 -452 -32 -61 -158 -96 -520 -145 -313 -42 -405 -59
-495 -92 -84 -31 -131 -79 -109 -114 14 -23 176 -23 399 0 374 38 881 72 1100
74 256 1 291 -5 479 -92 211 -98 355 -134 591 -151 178 -12 160 -10 390 -52
155 -28 196 -32 355 -32 138 0 196 4 249 17 118 30 171 78 123 112 -18 13 -42
14 -132 9 -87 -5 -125 -3 -180 11 -224 55 -475 182 -677 343 -139 111 -182
184 -212 362 -52 312 -83 1087 -55 1403 18 211 55 319 213 617 204 385 306
531 520 746 78 77 236 220 351 319 236 200 405 366 561 553 127 152 327 417
453 601 162 236 272 372 525 646 146 159 225 264 278 370 120 237 147 415 198
1291 l21 351 -149 349 c-173 404 -270 615 -337 734 -111 195 -114 209 -120
510 -5 229 -14 276 -66 343 -59 77 -125 123 -494 347 -286 173 -476 356 -512
493 -17 66 -8 85 95 192 82 85 254 286 249 291 -1 1 -31 -4 -67 -11 -36 -8
-101 -17 -145 -21 -139 -11 -173 24 -161 167 8 96 70 344 120 483 20 55 34
107 31 116 -7 24 -48 40 -98 40 -70 0 -172 -27 -362 -92 -168 -58 -186 -62
-270 -63 -74 0 -97 4 -131 22 -83 44 -140 136 -194 313 -72 232 -163 394 -304
539 -173 178 -353 265 -592 287 -59 5 -73 4 -87 -11z m1714 -1509 c13 -29 -3
-197 -28 -278 -20 -69 -68 -118 -116 -118 -113 0 -152 93 -93 215 37 74 172
201 219 204 4 1 12 -10 18 -23z m-4406 -690 c114 -121 379 -567 566 -951 153
-316 156 -335 58 -335 -93 0 -139 32 -139 98 0 32 -33 82 -55 82 -23 0 -71 64
-124 167 -67 127 -147 234 -266 355 -151 153 -299 256 -393 274 -42 8 -67 -14
-76 -64 -14 -88 -367 -651 -503 -802 -68 -76 -103 -65 -103 31 0 110 80 303
202 490 157 242 493 564 683 655 88 43 109 43 150 0z m578 -32 c89 -46 148
-117 186 -225 30 -88 61 -146 101 -191 48 -55 82 -124 109 -219 37 -134 65
-379 42 -379 -32 0 -327 493 -490 818 -79 156 -90 190 -70 203 23 14 87 10
122 -7z m4155 -583 c110 -132 162 -248 162 -361 0 -122 -90 -367 -163 -447
-75 -82 -125 -49 -146 95 -16 115 -61 774 -61 899 l0 45 73 -78 c39 -42 100
-111 135 -153z m225 33 c119 -61 362 -228 507 -350 100 -84 116 -114 107 -199
-6 -61 -38 -130 -68 -146 -46 -24 -84 9 -196 176 -72 107 -141 178 -205 211
-86 44 -235 265 -214 319 7 20 8 19 69 -11z m-5253 -319 c48 -30 162 -153 196
-210 36 -62 38 -124 6 -158 -38 -40 -119 -71 -183 -70 -81 1 -208 39 -241 70
-40 38 -36 66 17 120 50 52 60 77 74 178 15 105 47 122 131 70z m511 -255 c74
-97 129 -214 136 -288 5 -52 3 -63 -12 -68 -56 -22 -201 230 -270 471 l-23 80
59 -65 c33 -36 83 -94 110 -130z m-299 -337 c27 -24 23 -69 -8 -89 -55 -37
-117 25 -80 80 19 30 60 35 88 9z m-697 -458 c43 -44 55 -83 30 -101 -26 -19
-61 2 -85 51 -42 86 -11 115 55 50z m709 -219 c139 -53 256 -155 256 -225 0
-36 60 -208 125 -361 70 -162 88 -217 75 -225 -13 -8 -84 81 -309 390 -197
270 -288 415 -275 436 9 16 62 10 128 -15z m-511 -105 c8 -14 18 -40 21 -57 7
-32 -7 -84 -23 -84 -18 0 -68 160 -56 180 8 13 40 -8 58 -39z m413 -165 c59
-60 92 -105 119 -160 21 -42 35 -80 31 -84 -11 -10 -102 90 -168 184 -116 166
-109 191 18 60z m1360 -101 c52 -55 77 -133 78 -245 1 -77 -3 -103 -19 -134
-11 -22 -25 -42 -32 -44 -40 -12 -113 231 -113 375 0 39 22 83 42 83 6 0 25
-16 44 -35z m-3334 -586 c0 -109 -9 -170 -23 -148 -10 16 -12 249 -2 275 13
34 25 -27 25 -127z m1484 43 c95 -69 241 -253 311 -394 29 -57 37 -85 37 -128
0 -139 -130 -277 -279 -296 -27 -4 -62 -13 -77 -20 -37 -19 -72 -83 -97 -179
-48 -178 -87 -231 -126 -172 -24 38 -54 172 -66 295 -29 314 68 786 183 894
38 35 65 35 114 0z m657 -12 c61 -53 74 -120 23 -120 -31 0 -71 47 -80 94 -12
63 6 71 57 26z m2967 -3797 c0 -71 -33 -217 -69 -308 -32 -80 -56 -120 -143
-234 -45 -59 -64 -99 -87 -187 -7 -26 -33 -66 -71 -109 -46 -53 -65 -83 -80
-133 -35 -112 -23 -274 29 -413 21 -55 39 -84 155 -252 31 -44 67 -113 84
-160 55 -152 64 -235 71 -645 3 -204 5 -372 3 -372 -2 0 -53 44 -113 99 -153
138 -229 173 -229 108 0 -25 63 -118 151 -222 72 -86 129 -204 129 -267 0 -54
-20 -102 -49 -118 -11 -5 -37 -10 -58 -10 -117 1 -244 129 -377 381 -127 241
-195 508 -256 1001 -24 201 -26 354 -4 449 26 114 171 378 442 804 258 406
424 633 465 635 4 0 7 -21 7 -47z m-742 -2945 c88 -116 142 -205 142 -235 0
-51 -97 -56 -193 -10 -67 33 -92 74 -85 138 6 56 48 199 59 199 4 0 39 -42 77
-92z m941 -213 c30 -39 36 -82 15 -106 -14 -16 -31 -19 -94 -19 -111 0 -120
15 -51 81 45 44 79 66 103 68 4 1 16 -10 27 -24z"/>
<path d="M6378 11323 c-37 -39 -51 -80 -43 -130 12 -82 102 -143 179 -122 62
17 66 91 11 199 -42 83 -99 103 -147 53z"/>
<path d="M7261 7440 c-10 -17 -21 -61 -25 -98 -18 -172 -174 -453 -454 -816
-162 -211 -214 -299 -155 -268 58 32 397 432 490 580 70 111 184 344 218 445
28 86 27 135 -6 168 -27 27 -47 23 -68 -11z"/>
<path d="M7619 6868 c-28 -14 -90 -70 -169 -152 -315 -328 -409 -411 -537
-475 -67 -33 -133 -86 -133 -105 0 -19 54 -66 76 -66 29 0 134 52 218 110 108
72 236 181 391 332 74 72 135 126 135 120 0 -6 -9 -58 -20 -114 -11 -57 -23
-136 -27 -175 -5 -62 -4 -73 10 -73 26 0 73 68 96 136 61 185 68 444 14 477
-5 4 -30 -4 -54 -15z"/>
<path d="M7462 6093 c-110 -112 -294 -364 -279 -380 15 -14 110 85 230 240
144 184 172 266 49 140z"/>
</g>
</svg>
